# xmcd CD database file generated by LOLA_Freedb v0.9beta0
# 
# Track frame offsets:
#      150
#      14820
#      25530
#      39665
#      54762
#      69575
#      80632
#      93535
#      103155
#      115915
#      132655
#      146027
#      159152
#      177370
# 
# Disc length: 2509 seconds
# 
# Revision: 0 
# Processed by: cddbd v1.5.1PL2 Copyright (c) Steve Scherf et al.
# Submitted via: LOLA_Freedb v0.9beta0
# 
DISCID=c009cb0e
DTITLE=Various Artist - Country Ladies
DYEAR=1900
DGENRE=
TTITLE0=Jean Shepard - Sing me an old fashioned song
TTITLE1=Billie Jo Spears - Your good girl's gonna go bad
TTITLE2=Anne Kirkpatrick - Hold on me
TTITLE3=Dottie West - (I'm gonna) put you back on the rack
TTITLE4=Jan Copper - Small two bedroom starter
TTITLE5=Jean Stafford - Let's hear it for the working man
TTITLE6=Wanda Jackson - The violet and the rose
TTITLE7=Jean Shepard - A satisfied woman
TTITLE8=Billie Jo Spears - I never promised you a rose garden
TTITLE9=Anne Kirkpatrick - Grievous angel
TTITLE10=Dottie West - It's high time
TTITLE11=Jan Copper - Slow dancin'
TTITLE12=Jean Stafford - Sweet red wine
TTITLE13=Wanda Jackson - Tears will be the chaser for the wine
EXTD=
EXTT0=
EXTT1=
EXTT2=
EXTT3=
EXTT4=
EXTT5=
EXTT6=
EXTT7=
EXTT8=
EXTT9=
EXTT10=
EXTT11=
EXTT12=
EXTT13=
PLAYORDER=
